<?xml version="1.0" standalone="no"?>
<!DOCTYPE svg PUBLIC "-//W3C//DTD SVG 20010904//EN"
 "http://www.w3.org/TR/2001/REC-SVG-20010904/DTD/svg10.dtd">
<svg version="1.0" xmlns="http://www.w3.org/2000/svg"
 width="815.000000pt" height="815.000000pt" viewBox="0 0 815.000000 815.000000"
 preserveAspectRatio="xMidYMid meet">
<metadata>
Created by potrace 1.11, written by Peter Selinger 2001-2013
</metadata>
<g transform="translate(0.000000,815.000000) scale(0.100000,-0.100000)"
fill="#000000" stroke="none">
<path d="M2617 7824 c-444 -178 -814 -327 -822 -331 -11 -6 25 -48 140 -162
l154 -155 -82 -55 c-392 -268 -727 -593 -1000 -971 -270 -375 -496 -865 -612
-1330 -16 -64 -18 -67 -172 -222 l-156 -156 122 -62 c84 -42 121 -65 118 -75
-3 -7 -11 -103 -17 -212 -40 -671 110 -1370 424 -1978 192 -372 408 -668 711
-971 410 -411 855 -698 1402 -904 583 -220 1271 -291 1918 -199 737 105 1476
451 2022 947 135 122 275 264 362 367 41 50 78 92 81 95 4 3 33 41 66 85 436
578 683 1199 776 1955 8 66 13 217 12 410 0 317 -9 421 -55 680 -218 1223
-1023 2278 -2152 2820 -386 185 -763 295 -1219 356 -149 20 -600 29 -748 15
l-115 -10 -24 27 c-13 15 -66 77 -119 137 -99 115 -187 211 -200 219 -4 2
-371 -141 -815 -320z m909 89 c264 -304 494 -597 494 -630 0 -40 -193 -938
-204 -950 -1 -1 -24 35 -51 80 -225 379 -557 816 -927 1220 -44 48 -89 99
-100 112 l-20 25 29 11 c15 5 165 66 333 134 168 68 312 124 320 124 8 1 65
-56 126 -126z m-845 -240 c53 -56 150 -164 275 -308 285 -327 555 -696 745
-1018 l29 -47 -38 16 c-333 142 -630 260 -922 365 l-175 62 -55 65 c-104 124
-299 337 -448 492 -82 85 -149 156 -148 157 3 3 670 272 676 273 3 0 30 -26
61 -57z m1744 42 c810 -39 1667 -394 2290 -950 44 -39 93 -82 109 -96 54 -45
282 -297 368 -406 394 -500 665 -1110 767 -1728 43 -259 46 -305 46 -645 0
-347 -3 -392 -50 -666 -141 -825 -584 -1626 -1206 -2179 -619 -550 -1318 -865
-2149 -967 -143 -18 -710 -17 -850 0 -923 117 -1706 502 -2328 1147 -289 299
-497 593 -678 955 -255 511 -383 1028 -400 1615 -6 175 7 479 20 492 2 3 41
-15 86 -39 l81 -45 3 -329 c3 -348 11 -439 62 -694 164 -821 605 -1562 1249
-2095 33 -28 62 -53 65 -56 3 -3 48 -37 100 -75 448 -328 982 -559 1505 -653
245 -43 382 -55 655 -55 270 -1 386 8 605 45 713 119 1352 433 1878 921 651
603 1045 1378 1153 2268 22 176 25 608 6 775 -94 829 -417 1534 -976 2134
-532 570 -1262 965 -2026 1095 -239 41 -353 50 -610 51 l-245 0 -67 84 c-37
47 -66 86 -63 89 7 7 323 19 405 16 41 -2 129 -6 195 -9z m-268 -617 c134
-208 233 -380 326 -563 l45 -90 -84 -295 c-101 -359 -195 -672 -204 -683 -3
-4 -32 55 -64 130 -33 76 -112 246 -177 379 l-119 241 29 119 c41 167 136 596
163 737 12 64 23 117 24 117 1 0 28 -42 61 -92z m-1960 -36 l61 -68 -62 -39
c-334 -212 -703 -555 -938 -872 -196 -265 -355 -545 -468 -829 l-52 -131 -139
-139 c-133 -133 -138 -137 -128 -99 146 551 436 1093 815 1525 97 111 295 308
404 401 122 105 417 319 440 319 4 0 34 -31 67 -68z m643 -502 c418 -151 931
-366 964 -404 34 -39 198 -377 306 -634 l48 -112 -31 19 c-126 75 -544 287
-827 419 l-135 63 -55 92 c-77 128 -259 404 -343 516 -40 55 -62 91 -51 87 11
-5 66 -25 124 -46z m1813 -380 c62 -140 180 -434 222 -555 l28 -80 -101 -295
c-136 -400 -242 -703 -247 -708 -3 -3 -7 1 -9 9 -2 8 -32 102 -65 209 -33 107
-90 276 -125 375 l-65 180 104 345 c57 190 122 416 146 502 24 87 46 154 50
150 3 -4 31 -63 62 -132z m-1099 -554 c160 -79 372 -189 471 -243 l180 -99 33
-85 c65 -167 237 -697 228 -706 -1 -1 -72 44 -157 100 -85 57 -197 129 -249
161 -161 100 -411 246 -419 246 -18 0 -44 44 -105 183 -36 81 -114 243 -173
360 -127 250 -116 227 -107 227 4 0 138 -65 298 -144z m3141 -149 c116 -77
211 -140 212 -141 5 -4 -30 -441 -47 -601 -29 -259 -96 -640 -126 -725 -3 -8
-43 98 -88 235 -46 138 -116 340 -156 449 l-73 200 12 140 c10 119 30 497 31
574 0 16 4 21 13 16 6 -4 107 -70 222 -147z m-1692 -244 c57 -194 118 -417
147 -541 l22 -93 -93 -242 c-102 -268 -298 -770 -303 -774 -2 -2 -22 92 -45
208 -24 117 -64 296 -89 399 l-47 187 48 139 c65 185 254 733 280 812 12 34
24 62 27 62 3 0 27 -71 53 -157z m-3812 56 c125 -67 434 -243 460 -262 13 -10
24 -75 52 -302 20 -160 39 -321 43 -359 8 -78 14 -77 -81 -11 -190 132 -561
357 -790 480 -49 26 -114 61 -143 77 l-52 30 197 204 c109 112 198 204 199
204 0 0 52 -27 115 -61z m6246 -313 c16 -16 -17 -403 -59 -678 l-11 -78 -131
-74 c-131 -74 -418 -226 -428 -226 -3 0 9 60 27 133 71 288 130 719 151 1102
l7 121 216 -144 c119 -80 221 -150 228 -156z m-5553 -100 c136 -93 156 -107
260 -186 53 -40 96 -77 96 -81 0 -4 9 -124 19 -266 11 -142 23 -310 27 -373
l6 -115 -23 21 c-177 155 -230 200 -341 287 -43 33 -78 64 -78 69 0 20 -52
472 -65 571 -19 133 -19 150 -2 141 6 -4 52 -35 101 -68z m2021 -132 c218
-130 592 -379 604 -402 14 -28 98 -383 136 -577 46 -239 46 -235 37 -235 -6 0
-56 41 -152 124 -86 74 -415 321 -549 411 -24 16 -45 34 -46 40 -32 107 -152
461 -201 591 -35 94 -64 174 -64 178 0 9 37 -11 235 -130z m-3131 44 c392
-211 909 -531 888 -549 -4 -3 -110 -13 -237 -23 -126 -9 -319 -26 -428 -37
l-197 -20 -68 37 c-37 21 -168 90 -291 155 l-223 117 197 201 c109 111 200
201 203 201 3 0 73 -37 156 -82z m5714 -353 c49 -143 113 -338 142 -433 61
-202 63 -169 -31 -433 -86 -241 -105 -286 -112 -263 -3 10 -28 111 -56 224
-28 113 -75 293 -106 401 l-55 196 29 124 c17 68 42 185 56 259 14 74 28 148
31 163 3 16 7 27 9 25 1 -2 43 -120 93 -263z m-4014 -15 c135 -117 137 -119
218 -195 l71 -67 8 -217 c4 -119 10 -296 13 -394 l5 -178 -201 202 -201 202
-18 281 c-10 155 -21 326 -25 381 -8 116 -24 118 130 -15z m2776 -211 c21
-118 51 -300 66 -404 l28 -190 -132 -303 c-73 -167 -176 -398 -230 -514 -105
-230 -109 -233 -111 -92 -1 91 -26 360 -51 547 l-20 149 59 146 c72 179 185
466 277 704 37 98 69 176 71 174 2 -2 21 -100 43 -217z m-3348 -141 c58 -46
154 -126 215 -178 l111 -95 -251 -7 c-139 -4 -325 -11 -414 -15 l-163 -8 -37
29 c-21 15 -125 86 -232 157 -106 71 -187 131 -180 133 8 3 124 14 259 26 346
30 446 37 522 39 l67 1 103 -82z m5418 -80 c-27 -123 -128 -479 -140 -492 -10
-10 -138 -68 -390 -178 -258 -112 -233 -105 -214 -60 41 96 91 231 139 376 29
87 57 162 62 166 4 4 67 37 138 73 72 36 195 102 275 146 79 44 146 78 148 76
2 -2 -6 -50 -18 -107z m-4177 -221 l98 -106 5 -308 c3 -169 2 -352 -3 -405
l-8 -97 -77 93 c-43 51 -122 144 -177 206 l-99 113 -6 176 c-3 97 -8 277 -11
401 l-6 225 93 -96 c51 -52 137 -143 191 -202z m1107 -5 c89 -68 357 -287 423
-346 l39 -35 18 -133 c30 -217 72 -753 57 -738 -2 3 -24 28 -47 55 -102 119
-256 277 -406 416 l-161 149 -43 197 c-23 109 -67 294 -96 412 -30 118 -54
216 -54 218 0 4 157 -110 270 -195z m2046 -62 c30 -113 72 -286 95 -384 l40
-180 -128 -255 c-93 -187 -128 -249 -131 -231 -11 88 -78 472 -106 608 l-34
163 48 122 c26 67 66 181 89 252 56 175 51 164 63 135 5 -14 34 -117 64 -230z
m-3760 -201 l199 -201 -130 6 c-71 3 -251 9 -399 12 l-269 7 -51 46 c-28 25
-75 66 -105 91 -29 25 -65 55 -80 68 -14 13 -61 51 -104 84 -42 34 -75 63 -73
66 7 7 344 19 587 20 l225 2 200 -201z m900 -69 c44 -52 119 -146 167 -207
l87 -113 -10 -357 c-5 -197 -10 -385 -10 -418 -1 -50 -3 -57 -13 -41 -24 38
-220 303 -273 368 l-53 66 2 411 c1 305 5 407 13 398 6 -7 47 -55 90 -107z
m3693 -87 c-6 -16 -24 -62 -39 -103 -31 -81 -85 -207 -144 -336 l-38 -81 -216
-81 c-119 -45 -267 -99 -328 -121 l-111 -40 131 263 131 262 95 39 c52 22 190
81 305 132 116 51 213 92 217 93 4 0 3 -12 -3 -27z m-1121 -250 c18 -93 46
-263 64 -378 l31 -211 -73 -119 c-40 -66 -109 -174 -154 -239 l-81 -119 -12
166 c-11 154 -33 370 -52 512 l-9 60 73 140 c39 77 94 188 121 247 27 60 52
108 55 108 3 0 20 -75 37 -167z m-3395 121 l197 -6 49 -52 c84 -88 324 -377
318 -383 -3 -2 -56 1 -118 7 -63 7 -225 19 -361 28 l-247 17 -205 204 -206
204 188 -7 c103 -3 276 -9 385 -12z m1266 -364 c37 -52 101 -147 143 -210 l77
-115 -14 -260 c-18 -325 -34 -567 -38 -572 -2 -2 -37 52 -77 119 -40 68 -106
173 -146 233 l-72 110 8 230 c5 127 9 309 10 406 0 97 3 179 7 183 8 8 10 6
102 -124z m-934 -150 c355 -29 311 -14 403 -133 79 -104 216 -292 245 -338
l17 -25 -193 27 c-105 15 -263 35 -350 45 l-158 18 -72 85 c-39 47 -119 140
-177 206 -58 66 -110 126 -114 133 -9 15 -35 16 399 -18z m3895 -6 c0 -14
-184 -343 -244 -437 l-35 -55 -183 -60 c-101 -34 -244 -79 -318 -102 -74 -23
-147 -45 -161 -50 -23 -7 -10 16 88 163 63 95 130 200 149 234 19 33 40 65 47
70 7 5 147 58 312 118 165 59 307 111 315 116 18 10 30 11 30 3z m-1170 -245
c25 -232 43 -528 32 -543 -77 -102 -212 -260 -327 -381 l-48 -50 8 35 c4 19 9
173 11 342 l4 307 84 130 c46 71 113 176 148 234 34 57 64 103 66 102 2 -2 12
-81 22 -176z m-1402 -201 c44 -73 105 -178 137 -233 l57 -100 -6 -105 c-8
-119 -53 -622 -65 -721 -7 -62 -8 -63 -20 -35 -6 16 -63 132 -126 258 l-114
229 19 317 c11 174 22 363 26 420 3 56 7 102 9 102 2 0 39 -60 83 -132z
m-1027 -83 c186 -24 441 -63 445 -68 54 -73 306 -488 300 -494 -2 -3 -89 13
-193 36 -103 22 -242 49 -308 61 -66 11 -129 22 -140 25 -11 2 -33 26 -50 52
-16 26 -89 128 -162 226 -73 97 -133 179 -133 182 0 9 44 5 241 -20z m3182
-167 c-31 -46 -106 -148 -167 -228 -60 -80 -110 -146 -111 -147 -1 -2 -638
-164 -698 -177 -25 -6 -14 10 77 109 58 64 141 159 184 213 l79 97 144 43 c79
23 234 71 344 107 110 35 201 64 203 65 1 0 -23 -37 -55 -82z m-2768 -423
c121 -24 262 -54 312 -65 l93 -22 105 -214 c107 -217 155 -319 155 -327 0 -3
-48 11 -107 30 -121 38 -460 133 -477 133 -6 0 -31 33 -56 73 -24 39 -95 152
-157 250 -62 97 -113 180 -113 182 0 9 24 5 245 -40z"/>
</g>
</svg>
